# xmcd CD database file
#
# Track frame offsets:
#	150
#	20096
#	37571
#	59024
#	78960
#	97963
#	117015
#	135789
#	156907
#	172807
#	188868
#	208517
#
# Disc length: 3023 seconds
#
# Revision: 0
# Processed by: cddbd v1.5.1PL0 Copyright (c) Steve Scherf et al.
# Submitted via: CDex 1.51
#
DISCID=8a0bcd0c
DTITLE=Ani Williams - Medicine Song
DYEAR=2000
DGENRE=New Age
TTITLE0=OM AH RA PA TSA NA DHI
TTITLE1=OM ZAMBHALA
TTITLE2=VAIRA GURU
TTITLE3=OM TARE TUM SOHA
TTITLE4=GREEN TARA
TTITLE5=GATE GATE
TTITLE6=OM MANI PADME HUM
TTITLE7=GREEN TARA 2nd version
TTITLE8=SIX SYLABLE VAIRA
TTITLE9=100 SYLABLE VAIRA
TTITLE10=OM NAMAHA SHIVAYA
TTITLE11=ARCHANGEL INVOCATION
EXTD=YEAR: 2000
EXTT0=
EXTT1=
EXTT2=
EXTT3=
EXTT4=
EXTT5=
EXTT6=
EXTT7=
EXTT8=
EXTT9=
EXTT10=
EXTT11=
PLAYORDER=
